<?xml version="1.0" encoding="iso-8859-1"?>
<!-- Generator: Adobe Illustrator 16.0.0, SVG Export Plug-In . SVG Version: 6.00 Build 0)  -->
<!DOCTYPE svg PUBLIC "-//W3C//DTD SVG 1.1//EN" "http://www.w3.org/Graphics/SVG/1.1/DTD/svg11.dtd">
<svg version="1.1" id="Capa_1" xmlns="http://www.w3.org/2000/svg" xmlns:xlink="http://www.w3.org/1999/xlink" x="0px" y="0px"
	 width="571.096px" height="571.095px" viewBox="0 0 571.096 571.095" style="enable-background:new 0 0 571.096 571.095;"
	 xml:space="preserve">
<g>
	<g>
		<path d="M554.083,475.703c-12.809-13.796,7.063-6.277-24.624-41.653c-2.229-2.488-5.929-6.461-8.11-8.99
			c-30.671-35.618,1.496-31.747-35.943-53.918c-37.007-21.917-13.405-30.405-39.974-54.51c-2.477-2.246-4.292-6.619-4.209-9.959
			c0.271-10.237-0.91-32.072-13.217-54.441c-16.91-30.753-2.051-59.971,0-61.507c2.052-1.537,36.901,27.68,34.851,50.233
			c-2.046,22.549,28.395,11.789,33.413,2.051c5.024-9.741,15.788-14.352,8.618-30.754c-7.176-16.402-19.482-48.179-12.301-70.217
			c6.354-19.514,0.249-14.514-8.706-24.857c-2.182-2.53-2.684-7.421-1.661-10.598c3.298-10.229,9.593-31.824,8.837-45.522
			c-0.904-16.21-4.173,9.502-16.775,16.341c-2.932,1.599-6.673-1.011-8.623-3.721c-2.855-3.958-8.223-8.881-17.662-10.06
			c-7.92-0.993-12.135-3.771-14.375-6.387c-2.181-2.536-2.659-2.681-2.299,0.645c0.147,1.416,0.39,2.917,0.774,4.303
			c0.875,3.225,3.646,6.07,0.349,5.539c-3.404-0.553-9.031-1.454-17.384-2.417c-3.321-0.378-4.09,1.182-2.577,4.02
			c0.928,1.743,1.578,3.741,1.171,5.583c-1.022,4.61-22.556-4.613-29.211-14.866c-4.05-6.224-11.112-10.743-16.042-13.341
			c-2.949-1.554-4.593,0.03-4.061,3.328c0.62,3.783,0.756,8.541-1.419,11.544c-3.647,4.997-12.513-6.931-25.197-0.763
			c-3.009,1.463-2.37,3.869,0.721,5.151c3.753,1.561,8.204,4.229,9.611,8.423c2.44,7.338-38.97-17.056-49.899,20.755
			c-0.928,3.215,0.633,4.043,3.47,2.258c5.267-3.328,13.577-6.538,18.241,2.101c6.171,11.455-10.02,26.327-21.847,23.75
			c-3.269-0.709-4.988-0.047-4.368,3.239c0.869,4.592,2.358,10.899,4.622,15.409c1.496,2.991,1.661,6.626-1.247,8.287
			c-4.876,2.784-13.219,5.822-24.16,3.351c-3.263-0.733-4.329,0.532-2.284,3.171c3.053,3.942,7.761,9.256,12.838,12.093
			c2.917,1.635,4.832,4.54,3.095,7.392c-1.924,3.159-4.983,6.804-9.372,8.305c-3.159,1.076-3.587,1.936-0.404,2.964
			c1.998,0.647,4.389,1.206,6.9,1.339c3.34,0.174,4.146,1.38,1.369,3.239c-3.748,2.512-9.57,5.166-16.695,4.279
			c-3.316-0.413-8.358-2.512-11.408-3.886c-20.386-9.212-67.306-32.267-106.683-6.322c-9.165,6.035-18.48,12.501-26.897,19.577
			c-2.562,2.148-7.253,3.594-10.586,3.39c-16.053-0.987-44.083,1.918-63.316,29.486c-22.553,32.334-37.752,36.579-46.128,33.872
			c-3.177-1.028-4.117-0.6-2.562,2.361c3.529,6.747,10.77,18.093,22.021,24.441c2.911,1.643,3.529,4.598,0.375,5.721
			c-0.423,0.148-0.878,0.284-1.333,0.379c-3.266,0.703-4.424,1.478-2.524,4.227c3.955,5.686,10.757,14.594,16.822,18.188
			c9.224,5.467-10.592,7.518,4.782,22.892c12.909,12.909,26.781,21.485,29.282,31.587c0.804,3.246,2.465,4.635,5.03,2.489
			c9.067-7.561,25.585-27.462,3.958-61.064C59.931,293.781,73.81,275.056,87,271.822c3.242-0.798,6.522,2.302,7.498,5.497
			c3.615,11.822,11.059,24.784,23.49,39.087c2.193,2.524,6.501,5.657,9.442,7.247c8.003,4.321,22.626,13.341,27.917,23.915
			c4.575,9.145,12.442,13.825,17.818,16.071c3.085,1.294,4.95,4.451,3.886,7.619c-2.857,8.423-8.443,23.554-12.989,27.556
			c-6.41,5.633,7.433,21.527,11.529,28.957c4.105,7.43,34.082,56.377,37.678,68.938c3.582,12.561,22.039,23.069,37.926,9.995
			c15.889-13.075-9.48-8.204-17.682-23.324c-7.879-14.517-40.338-35.659-26.099-80.906c1.005-3.187,4.099-3.978,6.484-1.644
			c4.915,4.817,12.186,13.116,12.693,20.534c0.769,11.278,15.371,11.532,22.042,18.968c5.775,6.437,36.014,20.008,45.968,31.688
			c2.157,2.541,3.694,7.902,5.674,10.592c7.743,10.58,28.206,20.735,31.925,31.262c3.995,11.344,12.152,15.93,31.268,4.528
			c2.872-1.714,6.484-5.999,4.781-8.872c-1.395-2.341-4.338-5.474-10.189-9.499c-15.635-10.757-21.273-8.452-28.443-19.476
			c-7.182-11.023-10.249-4.61-24.346-18.193c-11.42-11.012-23.183-17.809-27.778-25.588c-1.7-2.879-3.801-7.666-5.908-10.261
			c-1.972-2.441-4.292-5.538-5.943-8.5c-1.634-2.914-2.749-8.47-5.326-10.598c-4.297-3.559-11.688-5.828-14.248-7.838
			c-2.547-2.004-12.214-14.352-17.596-21.338c-2.039-2.647-2.606-7.294-1.507-10.45c1.339-3.842,2.822-8.92,2.961-12.803
			c0.254-7.17,12.554,17.686,78.158,8.973c0,0,15.38-3.328,22.301,8.452c6.922,11.792,14.092,1.791,26.906,1.791
			s32.29-4.864,37.675,1.537c5.385,6.413,23.832,20.504,4.616,49.467c-19.222,28.951-44.082-6.407-23.584,42.025
			c0,0,7.944,18.962,24.087-0.254c16.148-19.216,6.407-16.143,22.041-23.317c15.634-7.182,7.696-12.047,6.928-20.766
			c-0.774-8.712-5.645-28.441-3.334-37.923c2.306-9.481,4.61-15.374,1.283-18.962c-2.92-3.145,10.65,10.007,23.867,16.432
			c3.003,1.461,8.198,3.08,11.225,4.498c12.714,5.941,28.07,19.104,38.497,38.007c1.625,2.92,3.931,7.844,5.354,10.87
			c9.942,21.195,14.369,31.775,17.916,32.958c3.848,1.282,6.667,7.436,2.051,15.888c-4.345,7.969,12.218,39.106,41.127,28.378
			c3.133-1.164,4.823-5.106,3.718-8.269C568.245,497.655,562.996,485.301,554.083,475.703z"/>
	</g>
</g>
<g>
</g>
<g>
</g>
<g>
</g>
<g>
</g>
<g>
</g>
<g>
</g>
<g>
</g>
<g>
</g>
<g>
</g>
<g>
</g>
<g>
</g>
<g>
</g>
<g>
</g>
<g>
</g>
<g>
</g>
</svg>
